<svg version="1.1"
      xmlns="http://www.w3.org/2000/svg"
      xmlns:xlink="http://www.w3.org/1999/xlink"  id="snapshot-70132" width="250" height="250" viewBox="0 0 250 250"><desc>This image was made on Patterninja.com</desc><defs>
<!-- image 49968 -->
<g id="transformed-49968" data-image="49968" transform="translate(-4, 0) rotate(0, 125, 125)"><g><svg version="1.1" width="250px" height="250px" viewBox="0 0 250 250"><g id="original-49968"><svg xmlns="http://www.w3.org/2000/svg" viewBox="0 0 400 400" xmlns:xlink="http://www.w3.org/1999/xlink" version="1.1" preserveAspectRatio="xMidYMid meet">
  <path d="M264.5 177.1c-1.6-5.1-5.9-8.7-11.2-9.4l-24.8-3.6c-1.3-.2-2.3-1-2.9-2.1l-11.1-22.5c-2.4-4.8-7.1-7.7-12.4-7.7-5.3 0-10.1 3-12.4 7.7L178.6 162c-.6 1.1-1.6 1.9-2.9 2.1l-24.8 3.6c-5.3.8-9.5 4.4-11.2 9.4-1.6 5.1-.3 10.5 3.5 14.2l17.9 17.5c.9.9 1.3 2.2 1.1 3.4l-4.2 24.7c-.9 5.2 1.2 10.4 5.5 13.5 4.3 3.1 9.9 3.5 14.6 1.1l22.2-11.6c1.1-.6 2.5-.6 3.6 0l22.2 11.6c2 1.1 4.3 1.6 6.5 1.6 2.9 0 5.7-.9 8.1-2.7 4.3-3.1 6.4-8.3 5.5-13.5l-4.2-24.7c-.2-1.2.2-2.5 1.1-3.4l17.9-17.5c3.8-3.7 5.1-9.1 3.5-14.2zm-10.5 7l-17.9 17.5c-3.3 3.2-4.8 7.8-4 12.3l4.2 24.7c.4 2.1-.9 3.3-1.5 3.8-.6.4-2.1 1.3-4.1.3L208.6 231c-2-1.1-4.2-1.6-6.4-1.6s-4.4.5-6.4 1.6l-22.2 11.6c-1.9 1-3.5.1-4.1-.3-.6-.4-1.9-1.6-1.5-3.8l4.2-24.7c.8-4.5-.7-9.1-4-12.3L150.3 184c-1.5-1.5-1.2-3.3-1-3.9.2-.7 1-2.3 3.1-2.6l24.8-3.6c4.5-.7 8.4-3.5 10.4-7.6l11.1-22.5c1-1.9 2.7-2.1 3.5-2.1s2.5.2 3.5 2.1l11.1 22.5c2 4.1 5.9 6.9 10.4 7.6l24.8 3.6c2.1.3 2.9 1.9 3.1 2.6.1.8.4 2.5-1.1 4z" fill="rgba(0,0,0,.05)" stroke="none"/>
  <path d="M114.9 155.7c.2 0 .5 0 .7-.1l30.6-4.5c12-1.7 22.3-9.2 27.7-20.1l13.7-27.7c1.2-2.5.2-5.5-2.3-6.7-2.5-1.2-5.5-.2-6.7 2.3l-13.7 27.7c-3.9 7.9-11.4 13.4-20.1 14.6l-30.6 4.5c-2.7.4-4.6 2.9-4.2 5.7.3 2.5 2.5 4.3 4.9 4.3z" fill="rgba(0,0,0,.05)" stroke="none"/>
  <path d="M232.4 131.1c5.4 10.8 15.7 18.4 27.7 20.1l30.6 4.5c.2 0 .5.1.7.1 2.4 0 4.6-1.8 4.9-4.3.4-2.7-1.5-5.3-4.2-5.7l-30.6-4.5c-8.7-1.3-16.2-6.7-20.1-14.6L227.7 99c-1.2-2.5-4.2-3.5-6.7-2.3-2.5 1.2-3.5 4.2-2.3 6.7l13.7 27.7z" fill="rgba(0,0,0,.05)" stroke="none"/>
  <path d="M108.5 178.5c-2-1.9-5.1-1.9-7.1.1-1.9 2-1.9 5.1.1 7.1l22.2 21.6c6.3 6.1 9.2 15 7.7 23.7l-5.2 30.5c-.5 2.7 1.4 5.3 4.1 5.8.3 0 .6.1.9.1 2.4 0 4.5-1.7 4.9-4.2l5.2-30.5c2-11.9-1.9-24.1-10.6-32.5l-22.2-21.7z" fill="rgba(0,0,0,.05)" stroke="none"/>
  <path d="M246.6 280.4L219.2 266a36.91 36.91 0 0 0-34.2 0l-27.4 14.4c-2.4 1.3-3.4 4.3-2.1 6.8 1.3 2.4 4.3 3.4 6.8 2.1l27.4-14.4c7.8-4.1 17.1-4.1 24.9 0l27.4 14.4c.7.4 1.5.6 2.3.6 1.8 0 3.5-1 4.4-2.7 1.3-2.4.3-5.5-2.1-6.8z" fill="rgba(0,0,0,.05)" stroke="none"/>
  <path d="M272.4 267.4c.3 0 .6 0 .9-.1 2.7-.5 4.5-3.1 4.1-5.8l-5.2-30.5c-1.5-8.7 1.4-17.5 7.7-23.7l22.2-21.6c2-1.9 2-5.1.1-7.1s-5.1-2-7.1-.1l-22.2 21.6c-8.7 8.4-12.6 20.6-10.6 32.5l5.2 30.5c.3 2.5 2.5 4.3 4.9 4.3z" fill="rgba(0,0,0,.05)" stroke="none"/>
  <path d="M321.4 228.7l-28.1-11.1c-2.6-1-5.5.2-6.5 2.8-1 2.6.2 5.5 2.8 6.5l28.1 11.1c.6.2 1.2.3 1.8.3 2 0 3.9-1.2 4.7-3.2 1-2.5-.3-5.4-2.8-6.4z" fill="rgba(0,0,0,.05)" stroke="none"/>
  <path d="M202.7 288.2c-2.8 0-5 2.3-5 5l.3 30.2c0 2.7 2.3 5 5 5h.1c2.8 0 5-2.3 5-5l-.3-30.2c-.1-2.8-2.3-5-5.1-5z" fill="rgba(0,0,0,.05)" stroke="none"/>
  <path d="M144.4 123.5c1 1.3 2.5 2 4 2 1.1 0 2.1-.3 3-1 2.2-1.7 2.6-4.8 1-7L134 93.4c-1.7-2.2-4.8-2.6-7-1-2.2 1.7-2.6 4.8-1 7l18.4 24.1z" fill="rgba(0,0,0,.05)" stroke="none"/>
  <path d="M106.6 218.6l-28.3 10.7c-2.6 1-3.9 3.9-2.9 6.4.8 2 2.7 3.2 4.7 3.2.6 0 1.2-.1 1.8-.3l28.3-10.7c2.6-1 3.9-3.9 2.9-6.4-1.1-2.6-3.9-3.9-6.5-2.9z" fill="rgba(0,0,0,.05)" stroke="none"/>
  <path d="M262.2 124.9c1.3 0 2.6-.5 3.6-1.5l21.1-21.6c1.9-2 1.9-5.1-.1-7.1-2-1.9-5.1-1.9-7.1.1l-21.1 21.6c-1.9 2-1.9 5.1.1 7.1 1 1 2.2 1.4 3.5 1.4z" fill="rgba(0,0,0,.05)" stroke="none"/>
  <circle cx="273.9" cy="292.7" r="6.7" fill="rgba(0,0,0,.05)" stroke="none"/>
  <circle cx="315.2" cy="159.4" r="6.7" fill="rgba(0,0,0,.05)" stroke="none"/>
  <circle cx="89.2" cy="159.4" r="6.7" fill="rgba(0,0,0,.05)" stroke="none"/>
  <circle cx="202.1" cy="76.3" r="6.7" fill="rgba(0,0,0,.05)" stroke="none"/>
  <circle cx="132.1" cy="288" r="6.7" fill="rgba(0,0,0,.05)" stroke="none"/>
</svg>
</g></svg></g></g>
<!-- /image 49968 -->

<!-- image 66450 -->
<g id="transformed-66450" data-image="66450" transform="translate(214.75845972281067, 91.7584597228107) rotate(46, 33.24154027718932, 33.2415402771893)"><g><svg version="1.1" width="66.48308055437865px" height="66.4830805543786px" viewBox="0 0 66.48308055437865 66.4830805543786"><g id="original-66450"><svg xmlns="http://www.w3.org/2000/svg" viewBox="0 0 400 400" xmlns:xlink="http://www.w3.org/1999/xlink" version="1.1" preserveAspectRatio="xMidYMid meet">
  <path d="M262.1 253.6c-2-1.9-5.1-1.9-7.1.1-1.9 2-1.9 5.1.1 7.1l15.1 14.8c1 1 2.2 1.4 3.5 1.4 1.3 0 2.6-.5 3.6-1.5 1.9-2 1.9-5.1-.1-7.1l-15.1-14.8z" fill="rgba(0,0,0,.05)" stroke="none"/>
  <path d="M138.8 141.8c1.3 0 2.6-.5 3.6-1.5 1.9-2 1.9-5.1-.1-7.1l-16.8-16.5c-2-1.9-5.1-1.9-7.1.1-1.9 2-1.9 5.1.1 7.1l16.8 16.5c.9 1 2.2 1.4 3.5 1.4z" fill="rgba(0,0,0,.05)" stroke="none"/>
  <path d="M139.1 255.8L122.2 273c-1.9 2-1.9 5.1.1 7.1 1 1 2.2 1.4 3.5 1.4 1.3 0 2.6-.5 3.6-1.5l16.9-17.2c1.9-2 1.9-5.1-.1-7.1-2-1.9-5.2-1.9-7.1.1z" fill="rgba(0,0,0,.05)" stroke="none"/>
  <path d="M284.4 117.7c-2-1.9-5.1-1.9-7.1.1l-14.7 14.9c-1.9 2-1.9 5.1.1 7.1 1 1 2.2 1.4 3.5 1.4 1.3 0 2.6-.5 3.6-1.5l14.7-14.9c1.9-2 1.9-5.2-.1-7.1z" fill="rgba(0,0,0,.05)" stroke="none"/>
  <path d="M170.5 197.2c0-1.3-.5-2.7-1.5-3.7l-17.4-17.3c-2-1.9-5.1-1.9-7.1 0-1.9 2-1.9 5.1 0 7.1l14 13.9-15 14.9c-2 1.9-2 5.1 0 7.1 1 1 2.3 1.5 3.5 1.5 1.3 0 2.6-.5 3.5-1.5l18.4-18.3c1.1-1.1 1.6-2.4 1.6-3.7z" fill="rgba(0,0,0,.05)" stroke="none"/>
  <path d="M197.4 166.3c.1.1.3.2.5.4l.3.3.6.3c.1 0 .2.1.3.2.2.1.4.1.7.2.1 0 .2.1.3.1.3.1.6.1 1 .1.3 0 .6 0 1-.1.1 0 .2-.1.3-.1.2-.1.4-.1.6-.2.1-.1.3-.1.4-.2.2-.1.3-.2.5-.3.1-.1.2-.2.4-.3.1-.1.3-.2.4-.3l16.6-16.5c2-1.9 2-5.1 0-7.1-1.9-2-5.1-2-7.1 0l-13.1 13-14-13.9c-2-1.9-5.1-1.9-7.1 0-1.9 2-1.9 5.1 0 7.1l17.4 17.3z" fill="rgba(0,0,0,.05)" stroke="none"/>
  <path d="M256.6 213.1l-15-14.9 15-14.9c2-1.9 2-5.1 0-7.1-1.9-2-5.1-2-7.1 0l-18.4 18.3c-1 1-1.5 2.3-1.5 3.7 0 1.3.4 2.7 1.5 3.7l18.4 18.3c1 1 2.3 1.5 3.5 1.5 1.3 0 2.6-.5 3.5-1.5 2.1-2 2-5.2.1-7.1z" fill="rgba(0,0,0,.05)" stroke="none"/>
  <path d="M203.6 228.9c-.1-.1-.3-.2-.4-.3-.1-.1-.2-.2-.4-.3-.1-.1-.3-.1-.4-.2-.2-.1-.3-.2-.5-.2-.1-.1-.3-.1-.4-.1-.2-.1-.3-.1-.5-.2h-.4c-.2 0-.4-.1-.6-.1h-.4c-.2 0-.4 0-.5.1-.1 0-.3.1-.4.1-.2 0-.4.1-.5.2-.1.1-.3.1-.4.2-.2.1-.3.2-.5.3l-.3.3c-.1.1-.3.2-.4.3L179 246.6c-2 1.9-2 5.1 0 7.1 1 1 2.3 1.5 3.5 1.5 1.3 0 2.6-.5 3.5-1.5l14.1-14 14.1 14c1 1 2.3 1.5 3.5 1.5 1.3 0 2.6-.5 3.5-1.5 1.9-2 1.9-5.1 0-7.1l-17.6-17.7z" fill="rgba(0,0,0,.05)" stroke="none"/>
  <path d="M201 113.1c10 0 18.2-8.2 18.2-18.2 0-2.8-2.2-5-5-5s-5 2.2-5 5c0 4.5-3.7 8.2-8.2 8.2-4.5 0-8.2-3.7-8.2-8.2 0-2.8-2.2-5-5-5s-5 2.2-5 5c0 10.1 8.1 18.2 18.2 18.2z" fill="rgba(0,0,0,.05)" stroke="none"/>
  <path d="M201 285.6c-10 0-18.2 8.2-18.2 18.2 0 2.8 2.2 5 5 5s5-2.2 5-5c0-4.5 3.7-8.2 8.2-8.2 4.5 0 8.2 3.7 8.2 8.2 0 2.8 2.2 5 5 5s5-2.2 5-5c-.1-10-8.2-18.2-18.2-18.2z" fill="rgba(0,0,0,.05)" stroke="none"/>
  <path d="M114.5 198.1c0-10-8.2-18.2-18.2-18.2-2.8 0-5 2.2-5 5s2.2 5 5 5c4.5 0 8.2 3.7 8.2 8.2 0 4.5-3.7 8.2-8.2 8.2-2.8 0-5 2.2-5 5s2.2 5 5 5c10.1 0 18.2-8.2 18.2-18.2z" fill="rgba(0,0,0,.05)" stroke="none"/>
  <path d="M303.1 206.3c-4.5 0-8.2-3.7-8.2-8.2 0-4.5 3.7-8.2 8.2-8.2 2.8 0 5-2.2 5-5s-2.2-5-5-5c-10 0-18.2 8.2-18.2 18.2s8.2 18.2 18.2 18.2c2.8 0 5-2.2 5-5s-2.2-5-5-5z" fill="rgba(0,0,0,.05)" stroke="none"/>
  <circle cx="238.7" cy="109.1" r="5.1" fill="rgba(0,0,0,.05)" stroke="none"/>
  <circle cx="200.1" cy="197.1" r="11.6" fill="rgba(0,0,0,.05)" stroke="none"/>
  <circle cx="289.9" cy="161.7" r="5.1" fill="rgba(0,0,0,.05)" stroke="none"/>
  <circle cx="289.9" cy="236.5" r="5.1" fill="rgba(0,0,0,.05)" stroke="none"/>
  <circle cx="238.7" cy="287.4" r="5.1" fill="rgba(0,0,0,.05)" stroke="none"/>
  <circle cx="165.5" cy="287.4" r="5.1" fill="rgba(0,0,0,.05)" stroke="none"/>
  <circle cx="109.5" cy="232.5" r="5.1" fill="rgba(0,0,0,.05)" stroke="none"/>
  <circle cx="109.5" cy="156.6" r="5.1" fill="rgba(0,0,0,.05)" stroke="none"/>
  <circle cx="161.8" cy="108.1" r="5.1" fill="rgba(0,0,0,.05)" stroke="none"/>
</svg>
</g></svg></g></g>
<!-- /image 66450 -->

<!-- image 43923 -->
<g id="transformed-43923" data-image="43923" transform="translate(-125, -125) rotate(0, 125, 125)"><g><svg version="1.1" width="250px" height="250px" viewBox="0 0 250 250"><g id="original-43923"><svg xmlns="http://www.w3.org/2000/svg" viewBox="0 0 400 400" xmlns:xlink="http://www.w3.org/1999/xlink" version="1.1" preserveAspectRatio="xMidYMid meet">
  <path d="M284.6 204.4H297c2.8 0 5-2.2 5-5s-2.2-5-5-5h-13.8l17.4-18.9c1.9-2 1.8-5.2-.3-7.1-2-1.9-5.2-1.8-7.1.3l-23.7 25.7h-24.4l9.8-9.8c2-1.9 2-5.1 0-7.1-1.9-2-5.1-2-7.1 0l-16.5 16.4c-.4.1-.7.3-1.1.5h-26.9v-27.3l16.1-16c2-1.9 2-5.1 0-7.1-1.9-2-5.1-2-7.1 0l-9 9v-23.8l24.9-23c2-1.9 2.2-5 .3-7.1-1.9-2-5-2.2-7.1-.3l-18.1 16.7v-14.7c0-2.8-2.2-5-5-5s-5 2.2-5 5v14.7l-18.1-16.7c-2-1.9-5.2-1.8-7.1.3-1.9 2-1.8 5.2.3 7.1l24.9 23v22l-8.1-8.1c-2-1.9-5.1-1.9-7.1 0-1.9 2-1.9 5.1 0 7.1l15.2 15.1v29.1h-25.8c-.1-.1-.1-.2-.2-.3-.6-.6-1.3-1-2-1.2l-15.5-15.4c-2-1.9-5.1-1.9-7.1 0-1.9 2-1.9 5.1 0 7.1l9.8 9.8h-22.8L106 168.7c-1.9-2-5-2.2-7.1-.3-2 1.9-2.2 5-.3 7.1l17.4 18.9H99.9c-2.8 0-5 2.2-5 5s2.2 5 5 5h15l-16 17.3c-1.9 2-1.8 5.2.3 7.1 1 .9 2.2 1.3 3.4 1.3 1.3 0 2.7-.5 3.7-1.6l22.3-24.1H150l-8.1 8c-2 1.9-2 5.1 0 7.1 1 1 2.3 1.5 3.5 1.5 1.3 0 2.6-.5 3.5-1.5l15.2-15.1h29.3v27.3l-16.2 16.1c-2 1.9-2 5.1 0 7.1 1 1 2.3 1.5 3.5 1.5 1.3 0 2.6-.5 3.5-1.5l9.1-9.1v24.6l-24.9 23c-2 1.9-2.2 5-.3 7.1 1.9 2 5 2.2 7.1.3l18.1-16.7v13.8c0 2.8 2.2 5 5 5s5-2.2 5-5v-13.8l18.1 16.7c1 .9 2.2 1.3 3.4 1.3 1.3 0 2.7-.5 3.7-1.6 1.9-2 1.8-5.2-.3-7.1l-24.9-23v-24.6l9.1 9.1c1 1 2.3 1.5 3.5 1.5 1.3 0 2.6-.5 3.5-1.5 1.9-2 1.9-5.1 0-7.1l-16.2-16.1v-27.3h28.3l16.2 16.1c1 1 2.3 1.5 3.5 1.5 1.3 0 2.6-.5 3.5-1.5 1.9-2 1.9-5.1 0-7.1l-9.1-9h25.1l22.3 24.1c1 1.1 2.3 1.6 3.7 1.6 1.2 0 2.4-.4 3.4-1.3 2-1.9 2.2-5 .3-7.1l-15.8-17.3z" fill="rgba(0,0,0,.05)" stroke="none"/>
  <path d="M228.4 221.5c-2-1.9-5.1-1.9-7.1.1-1.9 2-1.9 5.1.1 7.1l13.9 13.7c1 1 2.2 1.4 3.5 1.4 1.3 0 2.6-.5 3.6-1.5 1.9-2 1.9-5.1-.1-7.1l-13.9-13.7z" fill="rgba(0,0,0,.05)" stroke="none"/>
  <path d="M168.6 175.4c1 1 2.2 1.4 3.5 1.4 1.3 0 2.6-.5 3.6-1.5 1.9-2 1.9-5.1-.1-7.1L160.1 153c-2-1.9-5.1-1.9-7.1.1-1.9 2-1.9 5.1.1 7.1l15.5 15.2z" fill="rgba(0,0,0,.05)" stroke="none"/>
  <path d="M175.6 221.1c-2-1.9-5.1-1.9-7.1.1L152.9 237c-1.9 2-1.9 5.1.1 7.1 1 1 2.2 1.4 3.5 1.4 1.3 0 2.6-.5 3.6-1.5l15.6-15.8c1.9-2 1.8-5.2-.1-7.1z" fill="rgba(0,0,0,.05)" stroke="none"/>
  <path d="M221.7 175.5c1 1 2.2 1.4 3.5 1.4 1.3 0 2.6-.5 3.6-1.5l13.5-13.7c1.9-2 1.9-5.1-.1-7.1-2-1.9-5.1-1.9-7.1.1l-13.5 13.7c-1.9 2-1.9 5.2.1 7.1z" fill="rgba(0,0,0,.05)" stroke="none"/>
</svg>
</g></svg></g></g>
<!-- /image 43923 -->
</defs><rect x="0" y="0" width="250" height="250" fill="rgba(255, 255, 255, 0)"></rect><use xlink:href="#transformed-49968" transform="translate(-250, -250)"></use><use xlink:href="#transformed-49968" transform="translate(0, -250)"></use><use xlink:href="#transformed-49968" transform="translate(250, -250)"></use><use xlink:href="#transformed-49968" transform="translate(-250, 0)"></use><use xlink:href="#transformed-49968" transform="translate(0, 0)"></use><use xlink:href="#transformed-49968" transform="translate(250, 0)"></use><use xlink:href="#transformed-49968" transform="translate(-250, 250)"></use><use xlink:href="#transformed-49968" transform="translate(0, 250)"></use><use xlink:href="#transformed-49968" transform="translate(250, 250)"></use><use xlink:href="#transformed-66450" transform="translate(-250, -250)"></use><use xlink:href="#transformed-66450" transform="translate(0, -250)"></use><use xlink:href="#transformed-66450" transform="translate(250, -250)"></use><use xlink:href="#transformed-66450" transform="translate(-250, 0)"></use><use xlink:href="#transformed-66450" transform="translate(0, 0)"></use><use xlink:href="#transformed-66450" transform="translate(250, 0)"></use><use xlink:href="#transformed-66450" transform="translate(-250, 250)"></use><use xlink:href="#transformed-66450" transform="translate(0, 250)"></use><use xlink:href="#transformed-66450" transform="translate(250, 250)"></use><use xlink:href="#transformed-43923" transform="translate(-250, -250)"></use><use xlink:href="#transformed-43923" transform="translate(0, -250)"></use><use xlink:href="#transformed-43923" transform="translate(250, -250)"></use><use xlink:href="#transformed-43923" transform="translate(-250, 0)"></use><use xlink:href="#transformed-43923" transform="translate(0, 0)"></use><use xlink:href="#transformed-43923" transform="translate(250, 0)"></use><use xlink:href="#transformed-43923" transform="translate(-250, 250)"></use><use xlink:href="#transformed-43923" transform="translate(0, 250)"></use><use xlink:href="#transformed-43923" transform="translate(250, 250)"></use></svg>